<mxfile host="app.diagrams.net" modified="2023-04-20T16:35:23.665Z" agent="Mozilla/5.0 (Windows NT 10.0; Win64; x64) AppleWebKit/537.36 (KHTML, like Gecko) Chrome/112.0.0.0 Safari/537.36" etag="SEaHSYZdJWeSN89H5khC" version="21.2.1" type="device">
  <diagram name="Page-1" id="MwjSRXGzx4IA0CP3OoHv">
    <mxGraphModel dx="794" dy="430" grid="1" gridSize="10" guides="1" tooltips="1" connect="1" arrows="1" fold="1" page="1" pageScale="1" pageWidth="850" pageHeight="1100" math="0" shadow="0">
      <root>
        <mxCell id="0" />
        <mxCell id="1" parent="0" />
        <mxCell id="cFAoTh_zrZUF_dWr_aMn-1" value="student" style="rounded=0;whiteSpace=wrap;html=1;" vertex="1" parent="1">
          <mxGeometry x="90" y="200" width="120" height="60" as="geometry" />
        </mxCell>
      </root>
    </mxGraphModel>
  </diagram>
</mxfile>
